    <svg
      id="Слой_1"
      data-name="Слой 1"
      xmlns="http://www.w3.org/2000/svg"
      viewBox="0 0 206.82 195.32"
    >
      <defs>
    <style type="text/css"><![CDATA[
       svg {
         stroke: #fff;
         fill: #fff;
       }
    ]]></style>
  </defs>
      <title>Yaremio logo</title>
      <path
        d="M224.07,361.94a8.41,8.41,0,0,0-1.54.3,6.31,6.31,0,0,0-1.33.58,7.09,7.09,0,0,0-1.79,1.44,21.34,21.34,0,0,0-1.53,1.95q-1.51,2.22-3.18,4.83t-3.63,5.73a12.86,12.86,0,0,0-1.58,3.05,16.15,16.15,0,0,0-.29,3.68v4.7a3.25,3.25,0,0,0,.32,1.47,2.31,2.31,0,0,0,1.2,1,10.89,10.89,0,0,0,1.69.43,15.94,15.94,0,0,0,1.89.32v1.82H195.81v-1.82c.44,0,1.07-.09,1.88-.19a8.09,8.09,0,0,0,1.72-.32,2.22,2.22,0,0,0,1.18-1,3.26,3.26,0,0,0,.32-1.5v-5.85q0-.76,0-1.35a3.28,3.28,0,0,0-.16-1,8.27,8.27,0,0,0-.56-1.14l-1-1.78c-1.2-2.11-2.36-4.1-3.48-6s-2.19-3.65-3.2-5.3a11,11,0,0,0-1.6-2.07,8.49,8.49,0,0,0-1.65-1.27,5.08,5.08,0,0,0-1.53-.54,10.78,10.78,0,0,0-1.63-.23v-1.83h19v1.83a14.27,14.27,0,0,0-3.51.36c-.61.19-.91.46-.91.8a3.19,3.19,0,0,0,.34,1c.22.52.62,1.31,1.2,2.38s1.3,2.41,2.32,4.18,2.25,3.86,3.68,6.24q4.44-7,6.09-9.82a11.8,11.8,0,0,0,1.66-3.42,1.34,1.34,0,0,0-1-1.22,9.78,9.78,0,0,0-3.16-.53v-1.83h12.3Z"
        transform="translate(-186.04 -198.7)"
      />
      <path
        d="M246.81,392.78a17,17,0,0,1-2.42.82,11.43,11.43,0,0,1-3,.37,8.15,8.15,0,0,1-4.23-.85,4.29,4.29,0,0,1-1.84-2.44h-.14a16.31,16.31,0,0,1-1.53,1.36,8.72,8.72,0,0,1-1.58.95,11.41,11.41,0,0,1-2.12.77,11.74,11.74,0,0,1-2.84.26,7,7,0,0,1-4.64-1.6,5.27,5.27,0,0,1-1.92-4.25,7.1,7.1,0,0,1,.42-2.59,5.8,5.8,0,0,1,1.2-1.88,6.34,6.34,0,0,1,1.62-1.24,17.42,17.42,0,0,1,2-.91c1.4-.52,3.09-1.05,5-1.61a28.74,28.74,0,0,0,4.31-1.48v-2.25c0-.38,0-.9-.09-1.54a5,5,0,0,0-.4-1.61,2.95,2.95,0,0,0-2.87-1.78,4.31,4.31,0,0,0-1.72.3,5.61,5.61,0,0,0-1.11.59,9.18,9.18,0,0,0,.39,1.43,5.64,5.64,0,0,1,.33,1.84,3.14,3.14,0,0,1-.21,1,2.17,2.17,0,0,1-.61.94,3.91,3.91,0,0,1-1.2.73,6.18,6.18,0,0,1-2,.25,4.2,4.2,0,0,1-3-.94,3.23,3.23,0,0,1-1-2.47,3.27,3.27,0,0,1,1-2.35,8.46,8.46,0,0,1,2.54-1.71,14.51,14.51,0,0,1,3.39-1.09,17.82,17.82,0,0,1,3.55-.39,29.67,29.67,0,0,1,4.16.27,9.92,9.92,0,0,1,3.41,1.11,6,6,0,0,1,2.3,2.37,8.41,8.41,0,0,1,.85,4.06q0,2.64-.1,6.26c-.07,2.42-.11,4-.11,4.77a3.66,3.66,0,0,0,.32,1.66,2,2,0,0,0,1,.91,3.46,3.46,0,0,0,1.25.22c.57,0,1.08,0,1.55,0Zm-11.59-12.17a26.89,26.89,0,0,0-2.6,1,10.15,10.15,0,0,0-2.11,1.2,4.57,4.57,0,0,0-1.36,1.68,5.44,5.44,0,0,0-.49,2.4,3.58,3.58,0,0,0,.83,2.65,2.83,2.83,0,0,0,2,.82,3.9,3.9,0,0,0,2.12-.53,6.27,6.27,0,0,0,1.47-1.3Z"
        transform="translate(-186.04 -198.7)"
      />
      <path
        d="M272.83,374.37a4.81,4.81,0,0,1-1.1,3.12,3.57,3.57,0,0,1-2.9,1.34,4.8,4.8,0,0,1-2.89-.86,3,3,0,0,1-1.18-2.54,5.14,5.14,0,0,1,.12-1.26c.08-.31.15-.59.21-.85a5,5,0,0,0-2.27.74,7.49,7.49,0,0,0-2.1,1.85v12.83a3.17,3.17,0,0,0,.26,1.36,1.89,1.89,0,0,0,.86.84,6.2,6.2,0,0,0,1.67.43c.78.12,1.33.18,1.67.2v1.7H249.55v-1.7c.39,0,.78-.08,1.18-.13a5.61,5.61,0,0,0,1-.22,1.72,1.72,0,0,0,1-.8,3.11,3.11,0,0,0,.28-1.4v-13.6a3,3,0,0,0-.4-1.51,3.53,3.53,0,0,0-1-1.06,3.88,3.88,0,0,0-1.06-.47,7.35,7.35,0,0,0-1.42-.25v-1.71l11.15-.61.35.35v3.39h.09a13.77,13.77,0,0,1,3.43-2.93,7.33,7.33,0,0,1,3.77-1.06,4.67,4.67,0,0,1,3.5,1.34,4.73,4.73,0,0,1,1.32,3.47"
        transform="translate(-186.04 -198.7)"
      />
      <path
        d="M298.78,387.69a14.56,14.56,0,0,1-2,2.51,11.64,11.64,0,0,1-2.63,2,14.88,14.88,0,0,1-3.16,1.35,13.68,13.68,0,0,1-3.68.45,16.45,16.45,0,0,1-6-1,11.69,11.69,0,0,1-4.15-2.64,10.48,10.48,0,0,1-2.44-3.92,14.34,14.34,0,0,1-.81-4.89,12.3,12.3,0,0,1,3.37-8.46,11.83,11.83,0,0,1,4-2.69,13.8,13.8,0,0,1,5.41-1,15.45,15.45,0,0,1,5.38.8,9.47,9.47,0,0,1,3.48,2.2,7.91,7.91,0,0,1,1.94,3.14,12,12,0,0,1,.61,3.8v1.52h-15.8c0,3.19.61,5.62,1.85,7.29s3.18,2.5,5.86,2.5a6.76,6.76,0,0,0,3.95-1.21,11.28,11.28,0,0,0,3-3.05Zm-8.93-8.88c0-.94-.05-1.9-.14-2.88a9.51,9.51,0,0,0-.49-2.4,3.68,3.68,0,0,0-1.09-1.66,2.64,2.64,0,0,0-1.74-.56,3.21,3.21,0,0,0-2.87,1.82,12.3,12.3,0,0,0-1.17,5.77Z"
        transform="translate(-186.04 -198.7)"
      />
      <path
        d="M347.28,393.27H333.39v-1.7c.34-.05.7-.09,1.07-.12a2.64,2.64,0,0,0,.93-.23,1.15,1.15,0,0,0,.65-.79,6,6,0,0,0,.13-1.41V378.11a6.23,6.23,0,0,0-.85-3.61,2.81,2.81,0,0,0-2.45-1.21,4.76,4.76,0,0,0-1.79.32,6.62,6.62,0,0,0-1.44.78,5.13,5.13,0,0,0-1.06,1l-.63.84v12.55a3.78,3.78,0,0,0,.2,1.37,1.55,1.55,0,0,0,.73.83,5,5,0,0,0,.84.37,5.51,5.51,0,0,0,1,.24v1.7H317.46v-1.7l1.06-.12a2.71,2.71,0,0,0,.93-.23,1.27,1.27,0,0,0,.64-.75,5.29,5.29,0,0,0,.15-1.45V378.11a6.22,6.22,0,0,0-.86-3.61,2.8,2.8,0,0,0-2.45-1.21,4.76,4.76,0,0,0-1.79.32,7.12,7.12,0,0,0-1.44.78,5.4,5.4,0,0,0-1.06,1l-.63.84v12.55a3.77,3.77,0,0,0,.21,1.36,1.61,1.61,0,0,0,.75.84,5.17,5.17,0,0,0,.85.37,5.43,5.43,0,0,0,1,.24v1.7h-14v-1.7c.41,0,.8-.07,1.19-.12a4.31,4.31,0,0,0,1-.23,1.85,1.85,0,0,0,1-.81,3,3,0,0,0,.28-1.39v-13.6A3,3,0,0,0,304,374a3.2,3.2,0,0,0-1-1.11,3.88,3.88,0,0,0-1.06-.47,7.35,7.35,0,0,0-1.42-.25v-1.71l11.15-.61.35.35v3.3h.09l1.56-1.39a12.22,12.22,0,0,1,1.69-1.3,7.93,7.93,0,0,1,2.22-.93,11.18,11.18,0,0,1,3-.38,8,8,0,0,1,4.45,1.16,6.34,6.34,0,0,1,2.54,3.07h.21c.45-.42,1-.91,1.66-1.48a13.88,13.88,0,0,1,1.8-1.37,8.52,8.52,0,0,1,2.32-1,10.93,10.93,0,0,1,3-.4,7,7,0,0,1,5.43,2.08,8.45,8.45,0,0,1,1.91,5.91v11.36a3.2,3.2,0,0,0,.25,1.39,1.78,1.78,0,0,0,.94.81,8,8,0,0,0,.92.32,7,7,0,0,0,1.28.24Z"
        transform="translate(-186.04 -198.7)"
      />
      <path
        d="M364.24,393.27H349.47v-1.7c.41,0,.8-.07,1.19-.12a4.31,4.31,0,0,0,1-.23,1.94,1.94,0,0,0,1.05-.81A2.78,2.78,0,0,0,353,389v-13.6a2.73,2.73,0,0,0-.37-1.44,3.16,3.16,0,0,0-.93-1,4.83,4.83,0,0,0-1.28-.54,7.93,7.93,0,0,0-1.55-.32v-1.71l11.45-.61.35.35v18.56a2.66,2.66,0,0,0,.35,1.39,2.12,2.12,0,0,0,1,.85,8.07,8.07,0,0,0,1,.37,7.58,7.58,0,0,0,1.17.24Zm-3.41-31.87a4,4,0,0,1-1.37,3,4.84,4.84,0,0,1-6.49,0,4,4,0,0,1-1.37-3,4,4,0,0,1,1.37-3,4.63,4.63,0,0,1,3.26-1.26,4.58,4.58,0,0,1,3.24,1.26,4,4,0,0,1,1.36,3"
        transform="translate(-186.04 -198.7)"
      />
      <path
        d="M389.31,372.85a10.47,10.47,0,0,1,2.64,3.86,12.7,12.7,0,0,1,.91,4.86,13.48,13.48,0,0,1-.89,4.89,10.83,10.83,0,0,1-2.63,3.94,12.73,12.73,0,0,1-4.41,2.69,17.06,17.06,0,0,1-5.85.93,16.06,16.06,0,0,1-5.25-.82,12.21,12.21,0,0,1-4.24-2.45,11,11,0,0,1-2.81-3.87,12.56,12.56,0,0,1-1-5.15,13,13,0,0,1,.9-5,11.3,11.3,0,0,1,2.69-3.89,12,12,0,0,1,4.27-2.54,18.59,18.59,0,0,1,11.43,0,12.42,12.42,0,0,1,4.26,2.54m-6,16.19a13.53,13.53,0,0,0,.76-3.17,34.52,34.52,0,0,0,.25-4.35,33.37,33.37,0,0,0-.24-3.74,13.64,13.64,0,0,0-.7-3.32,5.51,5.51,0,0,0-1.55-2.31,4.26,4.26,0,0,0-5.17.07,6,6,0,0,0-1.53,2.36,13.11,13.11,0,0,0-.68,3.12,37.15,37.15,0,0,0-.18,3.73c0,1.69,0,3.1.16,4.21a13.21,13.21,0,0,0,.79,3.36,5.38,5.38,0,0,0,1.55,2.29,4.19,4.19,0,0,0,4.95.06,5.23,5.23,0,0,0,1.59-2.31"
        transform="translate(-186.04 -198.7)"
      />
      <path
        d="M305.17,251.31a9.64,9.64,0,1,1,9.64-9.64,9.65,9.65,0,0,1-9.64,9.64m0-16.75a7.12,7.12,0,1,0,7.11,7.11,7.12,7.12,0,0,0-7.11-7.11"
        transform="translate(-186.04 -198.7)"
      />
      <path
        d="M288.4,301.21a8.76,8.76,0,0,1-6.23-2.57l-5.06-5.07h0l-10.67-10.69a13.17,13.17,0,0,0-6.2-3.5l-2.17-.54,9.5-9.48a8.81,8.81,0,0,1,12.44,0l2.81,2.82h0l12.9,12.93a13.28,13.28,0,0,0,6.2,3.51l2.18.54-9.5,9.48a8.75,8.75,0,0,1-6.21,2.56m-7.72-7.64,3.28,3.28a6.28,6.28,0,0,0,8.87,0l6.45-6.44a15.65,15.65,0,0,1-5.33-3.51L279.09,272h0l-.86-.87a6.28,6.28,0,0,0-8.87,0l-6.45,6.43a15.78,15.78,0,0,1,5.33,3.52l12.45,12.47Z"
        transform="translate(-186.04 -198.7)"
      />
      <path
        d="M288.4,308.2a15.75,15.75,0,0,1-11.17-4.63l-14.7-14.72h0l-1-1a6.29,6.29,0,0,0-8.56-.3l-.9.91a3.8,3.8,0,0,1-.37.33,4.75,4.75,0,0,1-6.35-7.06l17.31-17.29a15.82,15.82,0,0,1,22.32,0l12.45,12.47h0l3.27,3.28a6.3,6.3,0,0,0,8.56.29l17.62-17.57a4.75,4.75,0,0,1,3.36-1.39h0a4.75,4.75,0,0,1,3.35,8.12l-34,33.95a15.74,15.74,0,0,1-11.15,4.61M266,288.69,279,301.79a13.26,13.26,0,0,0,18.74,0l34-33.94a2.22,2.22,0,0,0,.65-1.58,2.25,2.25,0,0,0-.65-1.58,2.23,2.23,0,0,0-3.15,0L311,282.33a8.83,8.83,0,0,1-12.07-.36l-5.05-5.06h0l-10.67-10.68a13.27,13.27,0,0,0-18.74,0l-17.32,17.29a2.23,2.23,0,0,0,3,3.31,1.29,1.29,0,0,0,.17-.16l1-1a8.84,8.84,0,0,1,12.07.35l2.65,2.66Zm39.22-30.27a16.75,16.75,0,1,1,16.75-16.75,16.76,16.76,0,0,1-16.75,16.75m0-31a14.22,14.22,0,1,0,14.22,14.22,14.25,14.25,0,0,0-14.22-14.22"
        transform="translate(-186.04 -198.7)"
      />
      <path
        d="M288.4,308.2a15.73,15.73,0,0,1-11.17-4.63l-14.7-14.72h0l-1-1a6.29,6.29,0,0,0-8.56-.3l-.9.91c-.12.12-.24.22-.37.33a4.75,4.75,0,0,1-6.35-7.06l17.31-17.28a15.81,15.81,0,0,1,22.32,0l12.45,12.47h0l3.27,3.28a6.3,6.3,0,0,0,8.56.29l17.62-17.57a4.77,4.77,0,0,1,6.73,0,4.74,4.74,0,0,1,0,6.72l-34,33.95a15.76,15.76,0,0,1-11.15,4.61m-22.46-19.51L279,301.79a13.27,13.27,0,0,0,18.75,0l34-33.94a2.22,2.22,0,0,0,.65-1.58,2.25,2.25,0,0,0-.65-1.58,2.23,2.23,0,0,0-3.15,0h0L311,282.33a8.83,8.83,0,0,1-12.07-.36l-5.06-5.06h0l-10.67-10.68a13.27,13.27,0,0,0-18.74,0l-17.32,17.29a2.23,2.23,0,0,0,3,3.31l.17-.16,1-1a8.84,8.84,0,0,1,12.07.35l2.65,2.66Zm22.46,12.52a8.76,8.76,0,0,1-6.23-2.57l-5.06-5.07h0l-10.67-10.69a13.17,13.17,0,0,0-6.2-3.5l-2.17-.54,9.5-9.48a8.81,8.81,0,0,1,12.44,0l2.81,2.82h0l12.9,12.93a13.28,13.28,0,0,0,6.2,3.51l2.18.54-9.5,9.48a8.75,8.75,0,0,1-6.21,2.56m-7.72-7.64,3.28,3.28a6.22,6.22,0,0,0,4.43,1.83,6.41,6.41,0,0,0,4.44-1.82l6.45-6.44a15.65,15.65,0,0,1-5.33-3.51L279.09,272h0l-.86-.87a6.28,6.28,0,0,0-8.87,0l-6.45,6.43a15.78,15.78,0,0,1,5.33,3.52l12.45,12.47Z"
        transform="translate(-186.04 -198.7)"
      />
      <path
        d="M305.17,258.42a16.75,16.75,0,1,1,16.75-16.75,16.76,16.76,0,0,1-16.75,16.75m0-31a14.23,14.23,0,1,0,14.22,14.22,14.25,14.25,0,0,0-14.22-14.22m0,23.86a9.64,9.64,0,1,1,9.64-9.64,9.65,9.65,0,0,1-9.64,9.64m0-16.75a7.12,7.12,0,1,0,7.11,7.11,7.12,7.12,0,0,0-7.11-7.11"
        transform="translate(-186.04 -198.7)"
      />
      <path
        d="M301.89,322.94H277a38.72,38.72,0,0,1-38.76-38.77V244.7A38.72,38.72,0,0,1,277,205.94h24.87a38.71,38.71,0,0,1,38.76,38.76v39.47a38.75,38.75,0,0,1-38.76,38.77M277,208.46a36.22,36.22,0,0,0-36.24,36.24v39.47A36.19,36.19,0,0,0,277,320.41h24.87a36.18,36.18,0,0,0,36.23-36.24V244.7a36.21,36.21,0,0,0-36.23-36.24Z"
        transform="translate(-186.04 -198.7)"
      />
      <path
        d="M301.89,330.17H277a46.05,46.05,0,0,1-46-46V244.7a46.06,46.06,0,0,1,46-46h24.87a46.06,46.06,0,0,1,46,46v39.47a46.05,46.05,0,0,1-46,46M277,201.23a43.52,43.52,0,0,0-43.47,43.47v39.47A43.52,43.52,0,0,0,277,327.65h24.87a43.52,43.52,0,0,0,43.47-43.48V244.7a43.52,43.52,0,0,0-43.47-43.47Zm24.87,121.71H277a38.72,38.72,0,0,1-38.76-38.77V244.7A38.72,38.72,0,0,1,277,205.94h24.87a38.71,38.71,0,0,1,38.76,38.76v39.47a38.75,38.75,0,0,1-38.76,38.77M277,208.46a36.22,36.22,0,0,0-36.24,36.24v39.47A36.19,36.19,0,0,0,277,320.41h24.87a36.18,36.18,0,0,0,36.23-36.24V244.7a36.21,36.21,0,0,0-36.23-36.24Z"
        transform="translate(-186.04 -198.7)"
      />
    </svg>